<?xml version="1.0" encoding="UTF-8"?>
<svg id="Layer_1" data-name="Layer 1" xmlns="http://www.w3.org/2000/svg" viewBox="0 0 671.55 825.85">
  <defs>
    <style>
      .cls-1 {
        stroke-width: 0px;
      }
    </style>
  </defs>
  <path class="cls-1" d="M671.52,540.34s0-.06,0-.08c0-.06.02-.12.02-.18,0-.01,0-.02,0-.03,0,0,0,0,0,0l-4.31-148.27c0-.05-.03-.11-.04-.16-.01-.08-.02-.15-.05-.22-.01-.03,0-.06-.02-.09l-35.28-82.59-12.04-86.89s0-.02,0-.03c0,0,0,0,0-.01,0,0,0-.02,0-.03-.01-.08-.03-.15-.06-.22,0,0,0,0,0,0-.03-.07-.07-.14-.11-.2,0-.01-.01-.03-.02-.04,0,0,0-.01-.01-.02l-41.35-61.17-34.77-55.01s-.03-.03-.04-.04c-.02-.03-.05-.06-.08-.09,0,0-.01-.02-.02-.03-.03-.03-.05-.06-.07-.09-.01-.01-.02-.03-.03-.04h0s0,0,0,0,0,0,0,0l-53.09-46.65-31.83-37c-.08-.1-.18-.18-.28-.24,0,0,0,0,0,0,0,0-.01,0-.02,0-.09-.06-.19-.11-.29-.14L391.33.05s-.08,0-.12-.01c-.08-.02-.17-.03-.25-.03-.09,0-.17,0-.26.02-.04,0-.08,0-.12.01-.05.01-.08.05-.12.06-.04.02-.09.02-.13.04l-57.14,30.7L275.18.15c-.08-.04-.16-.07-.25-.1,0,0,0,0,0,0,0,0,0,0,0,0-.16-.04-.32-.05-.48-.04-.02,0-.03,0-.05,0-.1.01-.2.04-.3.07l-59.48,23.27s-.06.04-.1.06c-.02.01-.05.01-.07.02-.03.02-.04.04-.07.06-.04.03-.08.04-.12.07l-34.49,28.45-58.62,49.14s-.01.02-.02.03c-.01.01-.02.03-.04.04-.03.03-.06.06-.09.09-.06.07-.11.15-.16.23-.01.02-.03.03-.04.05l-28.4,60.24-45.62,64.56s-.03.06-.04.09c-.02.03-.04.07-.05.1-.02.04-.05.08-.06.12,0,0,0,0,0,0-.03.09-.05.19-.06.28,0,.01,0,.02-.01.03,0,0,0,0,0,0,0,0,0,0,0,.01l-6.88,85.25L.12,397.28s-.03.08-.04.12c0,.03-.02.05-.03.07,0,.03-.02.06-.03.09,0,0,0,.02,0,.02-.02.08-.03.17-.03.25v142.24c0,.07.01.14.02.21,0,.02,0,.04,0,.06.01.05.03.1.05.15,0,.03.02.05.03.08.01.02.02.05.03.08l52.51,107.6,12.9,64.49s.02.05.03.07c.01.05.03.1.05.14.01.03.02.07.04.1,0,.02.01.04.02.06.02.04.06.08.09.12.03.04.06.09.1.13.02.03.04.06.06.08l82.76,77.58s.04.03.07.05c0,0,.01.02.02.03.02.01.03.02.05.03.09.06.19.12.29.16.02,0,.04.02.06.03,0,0,.01,0,.02,0l113.79,34.48s.01,0,.02,0c.12.03.24.05.36.05,0,0,0,0,0,0,0,0,0,0,0,0,0,0,0,0,0,0,.11,0,.23-.02.34-.05,0,0,0,0,0,0,0,0,.01,0,.02-.01,0,0,0,0,0,0,0,0,.02,0,.03,0l69.47-22.3,73.77,18.87s0,0,0,0h0s.03,0,.05,0c.09.02.18.03.27.03.13,0,.26-.02.39-.06.01,0,.03,0,.04,0,0,0,0,0,0,0l113.79-39.65s0,0,0,0c.14-.05.28-.12.4-.22.01-.01.02-.03.03-.04.01-.01.03-.01.04-.02l73.27-69.82s.02-.03.03-.04c.02-.02.04-.04.05-.06.04-.05.09-.1.12-.16.01-.02.02-.05.04-.07.02-.04.04-.08.06-.12,0-.02.02-.03.02-.04,0,0,0-.01,0-.02l31-88.69,44.78-82.66s.02-.07.04-.1c.02-.04.03-.07.04-.11.02-.05.03-.09.04-.14ZM624.78,621.26l-78.71-24.51,121.2-53.93-42.49,78.44ZM521.23,779.53l-76.18-92.74,146.56,25.67-70.38,67.07ZM69.73,713.41l153.58-19.92-73.89,94.64-79.7-74.72ZM4.06,542.74l121.31,54.47-70.97,48.69-50.34-103.15ZM41.56,314.43l58.64,30.81L4.1,394.92l37.46-80.49ZM93.29,165.12l30.89,68.27-73.96-7.32,43.08-60.96ZM171.92,62l72.56,24.04-118.29,14.29,45.73-38.33ZM330.63,32.45l-77.99,51.18L275.39,3.21l55.24,29.25ZM390.14,3.21l23.55,80.39-77.96-51.16,54.41-29.23ZM616.3,221.03l-71.69,12.17,32.73-69.8,38.96,57.62ZM664.34,391.39l-97.15,76.63-2.52-121.15,65.28-35.99,34.39,80.51ZM171.45,156.83l49.74,46.48-92.14,29.35,42.4-75.83ZM334.49,277.85l117.63,77.66-117.63,66.8v-144.46ZM331.88,422.31l-113.5-65.09,113.5-79.28v144.38ZM335.58,275.44l102.56-65.87,14.89,143.42-117.45-77.55ZM217.39,354.72l7.51-148.51,105.96,69.25-113.47,79.26ZM330.82,424.71l-118.4,89.4,4.76-154.58,113.64,65.17ZM335.6,424.69l117.78-66.89,5.13,155.52-122.91-88.63ZM457.4,515.74l-122.91,62.22v-150.85l122.91,88.63ZM440.71,209.08l99.49,26.6-84.64,116.39-14.85-143ZM334.49,273.04v-127.44l102.26,61.77-102.26,65.68ZM331.88,144.34v128.67l-105.66-69.05,105.66-59.62ZM214.83,353.59l-86.41-117.98,93.89-29.91-7.48,147.89ZM209.79,514.82l-101.93-45.01,106.68-109.18-4.75,154.19ZM331.88,427.18v151.77l-118.42-62.35,118.42-89.42ZM334.49,580.88l123.86-62.7-17.56,163.94-106.29-101.14v-.1ZM456.03,358.94l107.65,111.28-102.53,43.76-5.12-155.05ZM541.65,238.12l20.15,106.82-104.45,9.11,84.3-115.92ZM441.9,206.69l55.63-49.11,42.19,75.26-97.82-26.16ZM334.61,142.62l80.42-53.8,22.35,115.87-102.77-62.07ZM223.9,202.27l-50.82-47.49,77.44-66.5,79.2,54.28-105.82,59.7ZM213.15,355.71l-108.55-11.6,22.37-106.07,86.18,117.67ZM213.14,358.33l-106.29,108.78-2.49-120.4,108.78,11.62ZM208.74,517.21l-79.85,77.12-21.56-121.89,101.41,44.78ZM209.98,519.64l14.72,168.79-94.79-91.46,80.07-77.33ZM212.55,519.06l117.5,61.87-102.7,107.86-14.8-169.73ZM334.49,698.26v-113.67l104.5,99.43-103.2,16.38-1.3-2.14ZM460.92,518.71l78.5,74.91,1.36,3-97.33,85.09,17.46-163.01ZM541.71,592.33s0,0,0,0v-.02c-.04-.07-.1-.12-.14-.19-.05-.07-.09-.15-.15-.22l-79.17-75.55,101.96-43.52-22.35,119.82-.15-.32ZM457.46,356.66l104.62-9.12,2.49,119.85-107.1-110.72ZM543.9,235.98l72.43-12.3-52.48,118.09-19.95-105.78ZM499.53,155.82l3.04-2.69s.08-.08.12-.12l38.38-43.78v120.68l-41.54-74.09ZM440.07,204.84l-21.97-113.9,77.78,64.64-55.81,49.27ZM410.57,84.67l2.66,2.21-78.74,52.67V34.75l76.07,49.92ZM331.88,140.89l-79.11-54.22,79.11-51.91v106.13ZM171.22,152.94l-46.53-49.79,121.62-14.69-75.09,64.48ZM169.52,154.93l-42.07,75.24-4.05-124.59,46.12,49.35ZM102.55,341.16l-52.55-112.48,74.72,7.39-22.17,105.09ZM104.25,467.71L3.83,398l97.93-50.63,2.49,120.34ZM2.61,400.33l100.68,69.9L2.61,537.63v-137.3ZM104.67,472.44l21.64,122.32L3.99,539.84l100.69-67.4ZM223.44,690.84l-154.28,20.01,59.21-111.75,95.07,91.73ZM331.88,582.79v112.91c-.13.03-.26.06-.38.13-.62.37-.81,1.18-.44,1.79l.82,1.35v1.71l-102.79-9.95,102.79-107.95ZM440.05,686.49l-33.23,131.26-69.57-114.94,102.8-16.32ZM541.91,599.1l50.26,110.8-147.46-25.83,97.2-84.97ZM566.86,472.86l100.69,66.99-123.43,54.92,22.74-121.91ZM566.12,343.1l51.74-116.41,11.32,81.65-63.05,34.76ZM543.68,229.06v-118.78l31.98,50.59-31.98,68.19ZM500.79,151.23l-2.93,2.59-78.66-65.37,120.62,18.25-39.03,44.53ZM392.88,3.27l62.42,19.46-38.91,60.8L392.88,3.27ZM250.02,83.29l-33.05-58.05,55.63-21.77-22.57,79.82ZM124.78,228.39l-29.8-65.88,25.88-54.9,3.92,120.78ZM48.76,232.17l51.44,110.12-57.87-30.41,6.43-79.71ZM124.39,601.04l-57,107.59-12.04-60.22,69.05-47.37ZM225.73,694.63l35.73,127.97-109.69-33.24,73.96-94.73ZM228.06,693.27l102.99,9.97-67.28,117.94-35.71-127.91ZM334.49,703.3l70.06,115.74-70.06-17.92v-97.82ZM442.43,687.72l76.48,93.11-109.73,38.24,33.25-131.35ZM594.23,708.11l-49.46-109.03,78.97,24.59-29.51,84.44ZM668.86,537.59l-100.71-67,96.55-76.15,4.16,143.15ZM488.35,60.04l49.82,43.78-120.05-18.16,39.35-61.48,30.75,35.74s.08.09.13.13ZM181.44,54.03l33.28-27.46,32.89,57.76-73.34-24.3,7.16-6ZM266.16,822.27l65.72-115.22v94.12l-65.72,21.1Z"/>
</svg>